<?xml version="1.0" encoding="UTF-8"?>
<svg id="Calque_2" data-name="Calque 2" xmlns="http://www.w3.org/2000/svg" viewBox="0 0 364.4 67.74">
  <defs>
    <style>
      .cls-1 {
        fill: #fff;
      }
    </style>
  </defs>
  <g id="RENNES_Ville_et_Métropole" data-name="RENNES Ville et Métropole">
    <path class="cls-1" d="m193.42,19.58c1.33,4.35,5.03,7.11,10.95,7.11s10.13-2.79,10.13-7.92c0-4.18-2.62-6.8-9.86-7.82-4.08-.58-5.47-1.6-5.47-3.57,0-2.18,1.77-3.2,4.49-3.2,3.3,0,5.07,1.46,5.85,4.42l4.25-1.19c-1.12-4.56-4.49-7.17-10.1-7.17s-9.11,2.62-9.11,7.51c0,3.54,1.8,6.39,9.04,7.41,4.66.65,6.22,1.7,6.22,3.94,0,2.38-1.87,3.57-5.07,3.57-3.77,0-6.02-1.67-7.11-4.69l-4.22,1.6Zm-21.03-8.3c.48-4.01,2.89-6.83,7.07-6.83,3.88,0,6.46,2.38,6.46,6.83h-13.53Zm18.22,1.12c0-7.85-4.35-12.14-11.08-12.14-7.58,0-11.87,5.3-11.87,13.19s4.28,13.19,12.14,13.19c5.58,0,9.21-2.65,10.47-7.04l-4.32-1.39c-.88,3.23-3.54,4.15-6.19,4.15-4.9,0-7.11-3.06-7.45-7.21h18.29v-2.75Zm-44.65,13.8V7.61c2.48,2.38,9.62,12.78,12.41,18.6h4.62V.71h-4.49v17.1c-3.3-5.92-7.92-11.97-12.75-17.1h-4.28v25.5h4.49Zm-27.46,0V7.61c2.48,2.38,9.62,12.78,12.41,18.6h4.62V.71h-4.49v17.1c-3.3-5.92-7.92-11.97-12.75-17.1h-4.28v25.5h4.49Zm-27.44-14.93c.48-4.01,2.89-6.83,7.07-6.83,3.88,0,6.46,2.38,6.46,6.83h-13.53Zm18.22,1.12c0-7.85-4.35-12.14-11.08-12.14-7.58,0-11.87,5.3-11.87,13.19s4.28,13.19,12.14,13.19c5.58,0,9.21-2.65,10.47-7.04l-4.32-1.39c-.88,3.23-3.54,4.15-6.19,4.15-4.9,0-7.11-3.06-7.45-7.21h18.29v-2.75Zm-36.67-7.51c3.6,0,5.54,1.73,5.54,4.59,0,2.62-1.6,4.39-5.03,4.39h-6.12V4.89h5.61Zm4.39,12.27c4.52-1.46,5.95-4.93,5.95-8.19,0-5.17-3.6-8.26-9.83-8.26h-10.61v25.5h4.49v-8.33h5.24l1.73,2.79c3.03,4.86,4.25,5.71,8.98,5.71v-4.28c-2.48,0-3.37-.78-5.34-3.94l-.61-.99Z"/>
    <path class="cls-1" d="m355.56,43.63c2.82,0,4.83,1.8,4.83,5.1h-9.93c.34-2.99,2.04-5.1,5.1-5.1m8.84,5.95c0-6.12-3.43-9.45-8.81-9.45-6.02,0-9.35,4.15-9.35,10.3s3.4,10.27,9.66,10.27c4.49,0,7.17-2.11,8.16-5.58l-3.54-1.19c-.61,2.01-2.35,3.03-4.73,3.03-3.47,0-5.1-2.21-5.37-5.2h13.97v-2.18Zm-21.55-15.5h-4.25v26.18h4.25v-26.18Zm-17.37,22.75c-3.26,0-5.34-2.45-5.34-6.39s2.07-6.39,5.34-6.39,5.3,2.45,5.3,6.39-2.07,6.39-5.3,6.39m0,3.81c5.85,0,9.72-3.91,9.72-10.2s-3.88-10.2-9.72-10.2-9.76,3.94-9.76,10.2,3.88,10.2,9.76,10.2m-22-3.71c-3.3,0-5.41-2.48-5.41-6.53s2.11-6.53,5.41-6.53,5.44,2.48,5.44,6.53-2.18,6.53-5.44,6.53m-5.41,10.81v-10.54h.2c1.16,2.38,3.67,3.47,6.22,3.47,5.03,0,8.91-3.91,8.91-10.27s-3.88-10.27-8.91-10.27c-2.55,0-5.07,1.09-6.22,3.47h-.2v-3.06h-4.25v27.2h4.25Zm-17.27-10.91c-3.26,0-5.34-2.45-5.34-6.39s2.07-6.39,5.34-6.39,5.3,2.45,5.3,6.39-2.07,6.39-5.3,6.39m0,3.81c5.85,0,9.72-3.91,9.72-10.2s-3.88-10.2-9.72-10.2-9.76,3.94-9.76,10.2,3.88,10.2,9.76,10.2m-10.85-20.33c-.48-.1-.99-.14-1.46-.14-2.52,0-4.35.78-5.37,3.54h-.2v-3.16h-4.25v19.72h4.25v-9.69c0-5.58,2.41-6.09,4.73-6.09.78,0,1.53.07,2.31.17v-4.35Zm-17.61,16.18c-2.96,0-3.43-.92-3.43-6.29v-5.92h5.68v-3.74h-5.68v-4.76h-4.25v4.76h-3.67v3.74h3.67v7.04c0,6.97,1.8,9.08,6.97,9.08.95,0,2.35,0,3.5-.14v-3.81c-.68.03-2.24.03-2.79.03m-21.67-12.85c2.82,0,4.83,1.8,4.83,5.1h-9.93c.34-2.99,2.04-5.1,5.1-5.1m8.84,5.95c0-6.12-3.43-9.45-8.81-9.45-6.02,0-9.35,4.15-9.35,10.3s3.4,10.27,9.66,10.27c4.49,0,7.17-2.11,8.16-5.58l-3.54-1.19c-.61,2.01-2.35,3.03-4.73,3.03-3.47,0-5.1-2.21-5.37-5.2h13.97v-2.18Zm-3.84-16.97l-9.08,3.23,1.05,3.06,9.08-3.06-1.05-3.23Zm-20.04,2.14h-4.39c-2.86,5.92-5.54,11.83-7.65,18.6h-.34c-2.11-6.77-4.79-12.68-7.65-18.6h-4.39l-3.06,25.5h4.45l2.04-17.58c2.38,5.37,4.49,10.91,6.29,16.76h4.96c1.8-5.85,3.91-11.39,6.29-16.76l2.04,17.58h4.45l-3.06-25.5Zm-41.19,21.73c-2.96,0-3.43-.92-3.43-6.29v-5.92h5.68v-3.74h-5.68v-4.76h-4.25v4.76h-3.67v3.74h3.67v7.04c0,6.97,1.8,9.08,6.97,9.08.95,0,2.35,0,3.5-.14v-3.81c-.68.03-2.24.03-2.79.03m-21.67-12.85c2.82,0,4.83,1.8,4.83,5.1h-9.93c.34-2.99,2.04-5.1,5.1-5.1m8.84,5.95c0-6.12-3.43-9.45-8.81-9.45-6.02,0-9.35,4.15-9.35,10.3s3.4,10.27,9.66,10.27c4.49,0,7.17-2.11,8.16-5.58l-3.54-1.19c-.61,2.01-2.35,3.03-4.73,3.03-3.47,0-5.1-2.21-5.37-5.2h13.97v-2.18Zm-37.25-5.95c2.82,0,4.83,1.8,4.83,5.1h-9.93c.34-2.99,2.04-5.1,5.1-5.1m8.84,5.95c0-6.12-3.43-9.45-8.81-9.45-6.02,0-9.35,4.15-9.35,10.3s3.4,10.27,9.66,10.27c4.49,0,7.17-2.11,8.16-5.58l-3.54-1.19c-.61,2.01-2.35,3.03-4.73,3.03-3.47,0-5.1-2.21-5.37-5.2h13.97v-2.18Zm-21.9-15.5h-4.25v26.18h4.25v-26.18Zm-9.15,0h-4.25v26.18h4.25v-26.18Zm-9.35,6.46h-4.25v19.72h4.25v-19.72Zm-2.07-2.28c1.43,0,2.58-1.19,2.58-2.65s-1.16-2.62-2.58-2.62-2.69,1.19-2.69,2.62,1.19,2.65,2.69,2.65m-14.25,22l9.01-25.5h-4.76l-7.21,20.98h-.31l-7.21-20.98h-4.76l8.98,25.5h6.26Z"/>
    <path class="cls-1" d="m29.07,46.34c-3.7-5.25-6.23-6.9-11.43-7.69v4.86c3.62.55,5.28,2.35,7.64,5.72,6.22,8.86,9.69,12.55,22.3,11.92v-4.7c-9.77.63-13-2.35-18.51-10.12m3.07-2.43c5.28,7.29,8.12,9.8,15.44,9.17v-4.7c-5.36.63-7.96-2.12-11.66-7.37-4.57-6.43-9.69-9.88-18.28-10.35v4.78c6.15.23,10.09,2.35,14.5,8.47M0,60.46h4.88V19.6c-1.5.47-3.39,1.1-4.88,1.8v39.05ZM13.55,17.33c-1.5.23-3.39.55-4.89.94v42.19h4.89V17.33Zm26,4.7c0-8.08-6.38-13.49-18.99-13.49-6.62,0-14.5,1.49-20.56,4v5.02c5.59-2.51,13.71-4.31,20.56-4.31,9.14,0,14.1,3.06,14.1,8.94,0,3.45-1.73,6.43-4.81,8.31,1.34.7,2.68,1.8,3.78,2.82,3.78-2.51,5.91-6.66,5.91-11.29M21.11,0C14.1,0,6.93,1.49,0,3.76v5.02c7.56-2.82,14.81-4.08,21.11-4.08,14.34,0,22.69,6.51,22.69,16.78,0,6.04-2.6,11.13-7.49,14.51,1.03,1.1,2.13,2.43,2.99,3.53,6.15-4.16,9.38-10.9,9.38-18.03C48.69,8.55,38.13,0,21.11,0"/>
  </g>
</svg>