<svg width="167" height="32" viewBox="0 0 167 32" fill="none" xmlns="http://www.w3.org/2000/svg">
<path d="M15.1649 24.2361C13.2367 21.4678 11.9339 20.6321 9.22403 20.2142V22.7736C11.1001 23.0348 11.986 24.0272 13.1846 25.7509C16.4156 30.3996 18.2396 32.28 24.8059 31.9666V29.5117C19.7509 29.8251 18.0311 28.2581 15.1649 24.2361ZM16.7804 22.9825C19.5424 26.7956 21.0016 28.1014 24.8059 27.788V25.333C21.9917 25.6464 20.6368 24.2361 18.7086 21.4678C16.3114 18.1249 13.6536 16.2967 9.17192 16.0355V18.5427C12.4029 18.6472 14.4875 19.7441 16.7804 22.9825ZM0 31.601H2.55354V10.2377C1.77185 10.4988 0.781697 10.8122 0 11.1779V31.601ZM7.08739 9.08855C6.30569 9.19302 5.31554 9.34972 4.53384 9.55865V31.601H7.08739V9.08855ZM20.6368 11.5435C20.6368 7.31263 17.3016 4.49204 10.7353 4.49204C7.29584 4.49204 3.1789 5.27554 0 6.58136V9.19302C2.91834 7.88719 7.1395 6.947 10.7353 6.947C15.4776 6.947 18.0833 8.56622 18.0833 11.5957C18.0833 13.3717 17.1973 14.9387 15.5818 15.9311C16.2593 16.2967 16.9889 16.8713 17.5621 17.3936C19.5424 16.14 20.6368 13.9462 20.6368 11.5435ZM11.048 0C7.40007 0 3.64792 0.783495 0.0521133 1.98486V4.59651C4.01271 3.13398 7.76486 2.45495 11.048 2.45495C18.5002 2.45495 22.8777 5.8501 22.8777 11.2301C22.8777 14.3641 21.5227 17.028 18.9692 18.8039C19.4903 19.3785 20.0636 20.0575 20.5326 20.6321C23.7115 18.4383 25.4312 14.9387 25.4312 11.2301C25.3791 4.49204 19.9072 0 11.048 0Z" fill="#1A1A1A"/>
<path fill-rule="evenodd" clip-rule="evenodd" d="M95.2077 13.7778C92.58 13.7778 90.9321 12.5778 90.3531 10.6222L92.0901 9.86667C92.58 11.2 93.5598 11.9556 95.2522 11.9556C96.6775 11.9556 97.5237 11.4222 97.5237 10.3556C97.5237 9.37778 96.8556 8.88889 94.7623 8.62222C91.5556 8.17778 90.7539 6.88889 90.7539 5.33333C90.7539 3.15556 92.3573 2 94.8069 2C97.301 2 98.8153 3.15556 99.3052 5.2L97.4346 5.73333C97.1228 4.44444 96.3212 3.77778 94.8514 3.77778C93.6489 3.77778 92.8472 4.22222 92.8472 5.2C92.8472 6.08889 93.4707 6.53333 95.2968 6.8C98.548 7.24444 99.706 8.4 99.706 10.2667C99.706 12.5333 97.88 13.7778 95.2077 13.7778ZM84.1178 3.91111C82.2472 3.91111 81.1783 5.15555 80.9556 6.93333H87.0128C87.0128 4.97778 85.8548 3.91111 84.1178 3.91111ZM84.1624 2.04444C87.1464 2.04444 89.106 3.91111 89.106 7.42222V8.66667H80.9556C81.0893 10.4889 82.0691 11.8667 84.2514 11.8667C85.454 11.8667 86.6119 11.4667 87.0128 10.0444L88.9279 10.6667C88.3489 12.5778 86.7455 13.7778 84.2514 13.7778C80.7775 13.7778 78.8624 11.4667 78.8624 7.91111C78.8624 4.4 80.7775 2.04444 84.1624 2.04444ZM69.1977 5.28889V13.5556H67.1489V2.22222H69.0641C71.2464 4.48889 73.2952 7.2 74.7649 9.82222V2.22222H76.7691V13.5556H74.7204C73.4733 10.9778 70.3111 6.35556 69.1977 5.28889ZM56.9498 5.28889V13.5556H54.9456V2.22222H56.8607C58.9985 4.48889 61.0473 7.2 62.517 9.82222V2.22222H64.5212V13.5556H62.4725C61.2254 10.9778 58.0633 6.35556 56.9498 5.28889ZM47.9087 3.91111C46.0381 3.91111 44.9692 5.15555 44.7465 6.93333H50.8036C50.8036 4.97778 49.6456 3.91111 47.9087 3.91111ZM47.9087 2.04444C50.8927 2.04444 52.8523 3.91111 52.8523 7.42222V8.66667H44.7019C44.8356 10.4889 45.8154 11.8667 47.9977 11.8667C49.2002 11.8667 50.3582 11.4667 50.7591 10.0444L52.6742 10.6667C52.0952 12.5778 50.4918 13.7778 47.9977 13.7778C44.5238 13.7778 42.6087 11.4667 42.6087 7.91111C42.6087 4.4 44.5238 2.04444 47.9087 2.04444ZM39.0011 6.13333C39.0011 4.84444 38.1549 4.08889 36.5515 4.08889H34.0574V8.08889H36.7742C38.2885 8.08889 39.0011 7.28889 39.0011 6.13333ZM41.1389 5.91111C41.1389 7.37778 40.5154 8.88889 38.5112 9.55556L38.7784 10C39.6246 11.3778 40.0255 11.7333 41.1389 11.7333V13.6444C39.0011 13.6444 38.4667 13.2889 37.1305 11.1111L36.3734 9.86667H36.1507H34.0574V13.5556H32.0532V2.22222H36.7742C39.5356 2.22222 41.1389 3.6 41.1389 5.91111ZM164.687 23.5555C164.687 22.0888 163.796 21.2888 162.549 21.2888C161.168 21.2888 160.411 22.2221 160.277 23.5555H164.687ZM162.549 19.7333C164.954 19.7333 166.468 21.2444 166.468 23.9555H166.513V24.8888H160.277C160.411 26.2221 161.124 27.1999 162.682 27.1999C163.751 27.1999 164.508 26.7555 164.776 25.8666L166.334 26.3999C165.889 27.9555 164.687 28.8888 162.682 28.8888C159.876 28.8888 158.362 27.0221 158.362 24.311C158.362 21.5555 159.876 19.7333 162.549 19.7333ZM155.022 17.0666H156.892V28.711H155.022V17.0666ZM146.782 24.311C146.782 26.0888 147.673 27.1555 149.143 27.1555C150.568 27.1555 151.503 26.0444 151.503 24.311C151.503 22.5332 150.568 21.4666 149.143 21.4666C147.718 21.4666 146.782 22.5332 146.782 24.311ZM153.463 24.311C153.463 27.111 151.726 28.8444 149.143 28.8444C146.515 28.8444 144.823 27.111 144.778 24.311C144.778 21.511 146.515 19.7777 149.143 19.7777C151.726 19.7777 153.463 21.511 153.463 24.311ZM136.94 24.311C136.94 26.0888 137.875 27.1999 139.345 27.1999C140.814 27.1999 141.794 26.0888 141.75 24.311C141.75 22.5332 140.814 21.4221 139.345 21.4221C137.875 21.4221 136.94 22.5332 136.94 24.311ZM136.94 27.3332V31.9999H135.069V19.911H136.94V21.2888H137.029C137.519 20.2221 138.677 19.7333 139.79 19.7333C142.017 19.7333 143.754 21.4666 143.754 24.311C143.754 27.1555 142.017 28.8888 139.79 28.8888C138.677 28.8888 137.563 28.3999 137.029 27.3332H136.94ZM126.874 24.311C126.874 26.0888 127.765 27.1555 129.235 27.1555C130.704 27.1555 131.64 26.0444 131.595 24.311C131.595 22.5332 130.66 21.4666 129.235 21.4666C127.809 21.4666 126.874 22.5332 126.874 24.311ZM133.555 24.311C133.555 27.111 131.818 28.8444 129.235 28.8444C126.651 28.8444 124.914 27.111 124.87 24.311C124.87 21.511 126.607 19.7777 129.235 19.7777C131.818 19.7777 133.555 21.511 133.555 24.311ZM123.756 19.7777C123.979 19.7777 124.202 19.7777 124.424 19.8221H124.38V21.7333C124.344 21.7288 124.308 21.7243 124.273 21.7198C123.96 21.6803 123.676 21.6444 123.356 21.6444C122.331 21.6444 121.262 21.8666 121.262 24.3555V28.6666H119.392V19.911H121.262V21.3333H121.351C121.797 20.1333 122.643 19.7777 123.756 19.7777ZM115.072 24.2221C115.072 26.6221 115.25 27.0221 116.586 27.0221H117.833V28.711C117.298 28.7555 116.719 28.7555 116.274 28.7555H116.274C113.958 28.7555 113.156 27.8221 113.156 24.711V21.5999H111.509V19.9555H113.156V17.8221H115.072V19.9555H117.61V21.5999H115.072V24.2221ZM109.059 23.5555C109.059 22.0888 108.168 21.2888 106.921 21.2888C105.585 21.2888 104.828 22.2221 104.65 23.5555H109.059ZM106.966 19.7333C109.371 19.7333 110.885 21.2444 110.885 23.9555H110.93V24.8888H104.694C104.828 26.2221 105.54 27.1999 107.099 27.1999C108.168 27.1999 108.925 26.7555 109.193 25.8666L110.751 26.3999C110.306 27.9555 109.103 28.8888 107.099 28.8888C104.293 28.8888 102.779 27.0221 102.779 24.311C102.779 21.5555 104.293 19.7333 106.966 19.7333ZM105.095 17.8221L109.148 16.3999L109.638 17.8221L105.585 19.1999L105.095 17.8221ZM98.2808 17.3777H100.24L101.666 28.711H99.6615L98.7707 20.8888C97.7018 23.2888 96.7665 25.7777 95.9649 28.3555H93.738C92.9363 25.7332 92.001 23.2888 90.9321 20.8888L90.0413 28.711H88.0371L89.4178 17.3777H91.3775C92.6245 19.9999 93.827 22.6221 94.7623 25.6444H94.8959C95.8312 22.6221 96.9892 19.9999 98.2808 17.3777ZM80.3766 24.2221C80.3766 26.6221 80.5548 27.0221 81.8909 27.0221H83.1825V28.711C82.6481 28.7555 82.0691 28.7555 81.6238 28.7555H81.6237C79.3077 28.7555 78.5061 27.8221 78.5061 24.711V21.5999H76.8582V19.9555H78.5061V17.8221H80.3766V19.9555H82.9153V21.5999H80.3766V24.2221ZM74.3641 23.5555C74.3641 22.0888 73.4733 21.2888 72.2262 21.2888C70.8901 21.2888 70.133 22.2221 69.9548 23.5555H74.3641ZM72.2708 19.7333C74.6758 19.7333 76.1901 21.2444 76.1901 23.9555H76.2346V24.8888H69.9994C70.133 26.2221 70.8456 27.1999 72.4044 27.1999C73.4733 27.1999 74.2304 26.7555 74.4977 25.8666L76.0565 26.3999C75.6111 27.9555 74.4086 28.8888 72.4044 28.8888C69.5985 28.8888 68.0842 27.0221 68.0842 24.311C68.0842 21.5555 69.5985 19.7333 72.2708 19.7333ZM61.7153 23.5555C61.7153 22.0888 60.8246 21.2888 59.5775 21.2888C58.1969 21.2888 57.4397 22.2221 57.3061 23.5555H61.7153ZM59.5775 19.7333C61.9826 19.7333 63.4968 21.2444 63.4968 23.9555H63.5859V24.8888H57.3506C57.4843 26.2221 58.1969 27.1999 59.7557 27.1999C60.8246 27.1999 61.5817 26.7555 61.849 25.8666L63.4078 26.3999C62.9624 27.9555 61.7599 28.8888 59.7557 28.8888C56.9498 28.8888 55.4355 27.0221 55.4355 24.311C55.4355 21.5555 56.9053 19.7333 59.5775 19.7333ZM51.8725 17.0666H53.7431V28.711H51.8725V17.0666ZM47.8196 17.0666H49.6902V28.711H47.8196V17.0666ZM43.633 19.911H45.5036V28.6666H43.633V19.911ZM45.7708 17.7333C45.7708 18.3999 45.2364 18.9333 44.6129 18.9333C43.9448 18.9333 43.4103 18.3555 43.4103 17.7333C43.4103 17.111 43.9448 16.5777 44.6129 16.5777C45.2364 16.5777 45.7708 17.111 45.7708 17.7333ZM42.2524 17.3777L38.244 28.711H35.4381L31.4297 17.3777H33.5675L36.7742 26.711H36.9078L40.1145 17.3777H42.2524Z" fill="#1A1A1A"/>
</svg>
